<?xml version="1.0" standalone="no"?>
<!DOCTYPE svg PUBLIC "-//W3C//DTD SVG 20010904//EN"
 "http://www.w3.org/TR/2001/REC-SVG-20010904/DTD/svg10.dtd">
<svg version="1.0" xmlns="http://www.w3.org/2000/svg"
 width="2776.000000pt" height="1248.000000pt" viewBox="0 0 2776.000000 1248.000000"
 preserveAspectRatio="xMidYMid meet">
<metadata>
Created by potrace 1.16, written by Peter Selinger 2001-2019
</metadata>
<g transform="translate(0.000000,1248.000000) scale(0.100000,-0.100000)"
fill="#000000" stroke="none">
<path d="M13705 9580 l-4800 -5 -3 -1030 c-2 -798 -5 -1031 -15 -1037 -6 -4
-49 -8 -93 -8 -56 0 -85 -4 -93 -13 -6 -8 -9 -16 -6 -19 3 -2 -8 -69 -24 -149
-17 -79 -41 -218 -56 -309 -14 -91 -46 -282 -71 -425 -25 -143 -61 -348 -80
-455 -18 -107 -43 -240 -54 -295 -22 -111 -50 -274 -110 -626 -22 -129 -51
-291 -65 -360 -38 -187 -61 -165 188 -172 291 -9 552 -3 570 12 8 6 17 30 21
54 4 23 20 112 36 197 76 398 186 1054 215 1280 42 326 58 411 75 408 16 -4
31 -62 79 -318 51 -266 219 -1013 286 -1270 14 -52 39 -153 55 -224 16 -70 31
-130 34 -133 3 -3 146 -7 318 -10 193 -3 318 -9 326 -15 9 -8 12 -136 13 -572
1 -308 5 -727 8 -929 l6 -369 3274 1 c1801 0 3278 4 3282 8 5 5 9 421 9 925 0
815 2 919 16 932 8 9 23 16 33 16 9 0 25 6 35 13 19 14 21 20 101 452 71 378
83 445 125 695 59 347 104 611 136 785 8 44 26 145 39 225 29 171 70 378 80
403 7 16 29 17 265 17 143 0 261 -3 264 -8 6 -11 -42 -61 -107 -111 -163 -125
-349 -436 -426 -713 -34 -121 -71 -342 -77 -461 -24 -426 133 -831 413 -1065
83 -70 163 -119 275 -171 113 -53 192 -76 339 -100 269 -44 488 -37 724 24
168 43 299 98 460 193 274 163 498 440 615 762 52 144 97 345 111 496 53 610
-175 1075 -646 1321 -281 147 -758 186 -1128 92 -43 -11 -82 -17 -87 -14 -6 4
-10 404 -10 1033 0 564 -4 1030 -8 1034 -4 4 -21 9 -37 11 -17 1 -2190 0
-4830 -3z m4743 -1090 c1 -542 0 -1004 -3 -1027 -10 -69 -14 -70 -440 -74
l-370 -4 -3 47 c-2 25 -9 51 -16 57 -9 8 -136 10 -417 9 l-403 -3 -11 -43
c-12 -52 -36 -72 -87 -72 -41 0 -45 6 -50 80 l-3 35 -1154 3 c-844 1 -1157 -1
-1167 -9 -8 -6 -14 -28 -14 -49 0 -21 -6 -41 -12 -46 -7 -5 -157 -9 -333 -9
l-320 0 -60 37 c-226 140 -696 187 -1077 109 -95 -20 -180 -48 -323 -106 l-80
-33 -345 -3 -345 -4 0 55 0 55 -395 0 -395 0 -3 -43 c-5 -69 -7 -70 -327 -71
-154 -1 -286 3 -294 8 -8 5 -21 31 -30 57 l-16 49 -449 3 c-311 1 -453 6 -463
13 -18 16 -20 1938 -1 1957 9 9 1064 11 4708 10 l4695 -3 3 -985z m-1724
-1226 c18 -7 21 -51 6 -104 -9 -34 -60 -313 -100 -550 -47 -275 -59 -344 -110
-620 -11 -63 -37 -205 -56 -315 -19 -110 -41 -234 -48 -275 -8 -41 -24 -131
-36 -200 -12 -69 -26 -136 -31 -149 l-10 -24 -414 5 c-227 3 -418 9 -424 13
-16 9 -14 33 18 204 40 212 89 487 161 916 61 360 84 489 96 518 5 14 46 15
364 10 l358 -6 16 24 c8 14 20 57 26 98 5 40 17 107 25 149 26 136 34 176 40
219 12 75 59 110 119 87z m-6144 -36 c0 -18 -4 -49 -10 -68 -18 -68 -177 -999
-210 -1235 -21 -147 -35 -205 -50 -205 -8 0 -14 31 -35 182 -8 58 -23 151 -34
205 -11 54 -25 132 -31 173 -16 107 -137 716 -166 834 -27 113 -29 132 -11
139 6 3 132 6 280 6 l267 1 0 -32z m1320 18 c0 -8 -36 -47 -80 -86 -174 -158
-321 -398 -410 -670 -117 -356 -138 -686 -65 -988 28 -112 100 -283 158 -375
20 -31 37 -64 37 -71 0 -17 -82 -24 -305 -25 -198 -1 -229 4 -233 43 -2 15 12
110 32 210 64 333 87 461 201 1141 14 83 32 186 40 230 8 44 26 145 40 225 41
241 64 352 76 366 17 21 509 21 509 0z m2373 0 c3 -7 -12 -112 -33 -232 -21
-121 -41 -240 -44 -266 l-7 -46 67 -7 c37 -4 197 -5 356 -2 323 6 325 5 307
-56 -5 -17 -25 -126 -45 -242 -19 -115 -44 -255 -54 -310 -11 -55 -34 -181
-50 -280 -99 -581 -130 -746 -143 -762 -13 -17 -902 -19 -912 -2 -7 10 8 34
106 173 83 117 213 400 250 540 11 44 11 50 -6 62 -10 8 -30 14 -43 14 -13 0
-50 7 -82 15 -32 8 -133 28 -226 44 -202 36 -334 64 -391 85 -23 8 -45 12 -47
8 -2 -4 -18 -41 -34 -82 -17 -41 -46 -108 -66 -147 -20 -40 -36 -75 -36 -77 0
-15 -107 -160 -140 -189 -100 -91 -195 -122 -375 -121 -119 0 -135 2 -195 27
-91 39 -162 110 -210 212 -52 110 -64 175 -64 345 0 245 48 408 174 595 73
107 163 179 286 230 56 23 89 29 175 33 189 8 312 -28 388 -115 75 -85 115
-193 132 -357 6 -55 12 -102 15 -105 2 -2 34 1 71 7 88 15 256 29 518 42 140
7 212 15 218 23 12 18 0 240 -18 327 -43 204 -123 419 -179 480 -43 46 -96
121 -96 136 0 21 425 21 433 0z m5017 -466 c85 -30 127 -57 182 -118 129 -145
172 -330 133 -587 -38 -252 -150 -476 -290 -582 -141 -106 -330 -150 -530
-124 -119 16 -199 53 -273 128 -116 117 -157 252 -149 478 10 249 69 419 204
593 79 102 214 188 353 227 85 23 285 15 370 -15z m-4692 -1910 c1 -19 -4 -69
-12 -110 -8 -41 -13 -76 -12 -77 1 -1 127 -4 281 -7 280 -5 544 1 564 14 6 3
16 47 22 96 6 49 16 94 22 101 16 16 833 21 849 5 8 -8 6 -37 -7 -100 -10 -49
-15 -97 -12 -106 6 -14 37 -16 294 -16 164 0 294 -4 303 -10 13 -8 15 -119 18
-878 2 -699 0 -871 -10 -880 -16 -13 -6302 -22 -6315 -9 -4 5 -8 402 -8 884 0
806 1 876 17 887 11 8 61 12 166 10 82 -1 155 2 162 6 8 5 14 19 16 32 10 103
18 146 30 166 l14 22 344 0 c377 0 367 2 467 -65 155 -102 336 -172 549 -211
133 -25 448 -24 580 1 182 34 323 87 465 175 39 24 90 55 115 69 l45 26 470 5
c259 3 495 6 525 5 l55 0 3 -35z"/>
<path d="M11735 8941 c-192 -69 -322 -230 -354 -440 -23 -145 12 -263 116
-392 118 -147 295 -224 460 -200 180 27 347 141 422 288 71 141 65 355 -14
498 -37 68 -127 158 -195 197 -25 15 -76 36 -114 47 -89 27 -247 28 -321 2z
m273 -105 c111 -30 214 -114 270 -221 24 -46 26 -60 27 -170 0 -110 -2 -125
-28 -179 -39 -83 -143 -184 -222 -214 -112 -43 -231 -39 -329 10 -60 31 -145
117 -177 180 -85 168 -53 358 83 490 104 101 242 139 376 104z"/>
<path d="M16140 8950 c-154 -33 -311 -179 -372 -345 -27 -75 -36 -216 -18
-283 25 -92 97 -218 157 -274 15 -15 55 -43 88 -63 159 -95 341 -102 515 -18
79 38 198 160 238 243 81 173 61 385 -52 533 -110 144 -229 205 -411 212 -55
2 -120 0 -145 -5z m201 -110 c168 -31 308 -169 330 -325 10 -73 -8 -211 -34
-264 -60 -122 -205 -221 -335 -229 -85 -6 -160 12 -232 54 -125 73 -210 227
-210 379 0 58 41 166 82 218 113 143 241 196 399 167z"/>
<path d="M16941 8951 c-21 -14 -4 -65 33 -99 l33 -30 6 -208 c7 -223 -6 -521
-24 -566 -6 -16 -18 -28 -25 -28 -27 0 -60 -98 -34 -101 6 -1 78 -2 161 -3
105 -1 154 3 160 11 17 20 -16 70 -56 83 -64 21 -64 21 -65 375 -2 264 0 320
12 317 20 -4 63 -57 240 -292 89 -118 196 -258 238 -310 41 -52 88 -112 103
-133 35 -46 74 -74 87 -61 6 6 12 202 15 463 3 301 9 458 16 467 6 7 25 14 42
16 24 2 34 9 42 31 17 50 -7 57 -177 57 -168 0 -176 -4 -138 -65 17 -27 28
-35 50 -35 19 0 33 -7 40 -19 20 -38 9 -621 -11 -621 -8 0 -23 19 -170 220
-39 52 -92 124 -119 160 -27 36 -84 112 -127 170 -43 58 -96 123 -119 146 -35
36 -48 42 -99 48 -33 4 -68 9 -80 11 -11 3 -26 1 -34 -4z"/>
<path d="M9578 8942 c-12 -2 -18 -13 -18 -29 0 -22 21 -48 81 -97 15 -12 16
-50 12 -387 -3 -206 -9 -382 -15 -392 -5 -10 -22 -20 -38 -24 -37 -7 -53 -25
-48 -55 5 -40 34 -45 244 -41 219 3 295 13 365 48 57 29 125 105 139 154 30
110 -4 222 -85 279 -25 17 -45 38 -45 46 0 8 20 38 44 66 65 76 80 153 51 254
-19 66 -65 119 -130 148 -53 23 -62 24 -400 31 -77 1 -148 1 -157 -1z m487
-120 c70 -24 95 -64 95 -153 0 -58 -4 -72 -25 -97 -41 -49 -100 -72 -207 -79
-53 -3 -107 -3 -122 1 l-26 6 0 160 c0 141 2 160 18 169 29 17 210 12 267 -7z
m37 -455 c65 -36 104 -109 95 -183 -6 -61 -32 -93 -100 -128 -47 -24 -72 -30
-150 -34 -104 -5 -167 8 -168 36 -3 82 3 318 9 324 11 10 68 13 177 9 76 -2
109 -8 137 -24z"/>
<path d="M10483 8935 c-19 -14 -6 -44 41 -93 29 -31 31 -39 37 -130 9 -131 9
-523 0 -594 -5 -43 -14 -65 -33 -85 -30 -32 -62 -99 -53 -113 4 -6 73 -10 160
-10 121 0 154 3 158 14 6 15 -12 51 -56 114 -32 46 -52 145 -45 229 7 77 16
83 117 74 101 -8 97 -5 191 -186 111 -213 129 -232 233 -242 61 -5 67 -4 67
13 0 10 -19 39 -41 64 -52 59 -100 131 -156 235 -24 47 -49 87 -54 90 -5 4 -9
18 -9 33 0 20 15 42 56 81 79 77 102 127 100 221 -2 142 -83 241 -226 280 -60
17 -466 20 -487 5z m451 -106 c54 -13 114 -62 132 -105 8 -19 14 -58 14 -88 0
-46 -5 -60 -32 -94 -55 -67 -113 -93 -226 -99 -82 -5 -100 -3 -111 10 -9 12
-15 65 -18 180 -6 158 -5 165 16 186 18 18 33 21 102 21 44 0 100 -5 123 -11z"/>
<path d="M12583 8943 c-24 -3 -33 -9 -33 -23 0 -25 49 -82 66 -76 32 12 37
-23 41 -287 4 -278 -6 -459 -29 -500 -7 -13 -28 -44 -45 -67 -54 -71 -54 -71
129 -68 150 3 163 4 166 22 3 12 -14 36 -45 68 l-48 49 -6 307 c-3 169 -4 309
-3 311 7 8 35 -10 41 -26 4 -10 30 -58 58 -108 29 -49 77 -139 107 -200 31
-60 72 -139 92 -175 20 -36 42 -75 48 -88 15 -30 28 -24 53 24 12 21 32 57 44
78 12 22 54 101 92 175 38 75 89 172 114 216 24 44 51 97 61 118 33 74 37 46
30 -185 -3 -123 -7 -275 -7 -338 -1 -63 -5 -122 -9 -131 -5 -8 -27 -23 -48
-33 -40 -18 -62 -59 -42 -80 11 -12 280 -16 303 -4 34 18 10 83 -34 92 -19 4
-33 14 -39 31 -13 35 -13 760 0 785 5 10 24 21 41 25 22 5 35 16 44 38 7 18
11 35 9 38 -6 11 -159 22 -193 14 -17 -4 -31 -11 -31 -17 0 -6 -24 -51 -54
-102 -29 -50 -67 -116 -84 -146 -16 -30 -42 -77 -58 -105 -16 -27 -51 -97 -79
-155 -28 -58 -58 -116 -67 -129 l-17 -24 -20 24 c-11 13 -43 69 -70 124 -71
140 -181 342 -215 394 -16 25 -35 59 -42 77 -21 50 -49 64 -124 62 -36 0 -80
-3 -97 -5z"/>
<path d="M13927 8934 c-23 -24 6 -79 54 -101 26 -11 27 -16 34 -119 4 -60 6
-233 3 -386 -4 -259 -6 -279 -24 -293 -10 -8 -27 -15 -36 -15 -23 0 -48 -38
-48 -71 0 -33 13 -35 196 -39 136 -2 155 5 133 54 -7 14 -15 26 -19 26 -3 0
-23 15 -43 34 l-37 34 0 116 0 116 96 0 c155 0 253 33 333 112 79 78 105 170
77 279 -28 107 -88 180 -186 228 -54 25 -60 26 -290 29 -130 2 -239 0 -243 -4z
m443 -106 c99 -23 169 -112 170 -215 0 -125 -70 -191 -226 -212 -85 -12 -151
-8 -168 9 -17 17 -14 393 3 414 17 20 143 22 221 4z"/>
<path d="M14807 8934 c-10 -11 4 -208 16 -222 5 -7 24 -12 41 -10 30 3 31 5
36 60 3 31 10 62 16 68 7 7 56 14 111 17 85 5 101 3 116 -12 16 -16 18 -47 16
-389 -1 -204 -5 -381 -10 -394 -5 -14 -20 -25 -39 -29 -17 -3 -35 -14 -40 -24
-14 -25 -12 -66 2 -76 18 -10 300 -3 314 8 25 20 -5 79 -40 79 -12 0 -32 7
-44 16 l-22 15 0 379 c0 222 4 389 10 404 9 26 11 26 114 26 118 0 120 -1 137
-78 9 -42 16 -55 41 -68 45 -23 54 -8 61 99 3 50 7 101 9 112 3 20 -3 20 -418
23 -231 1 -423 -1 -427 -4z"/>
<path d="M11365 4488 c-11 -35 -23 -314 -13 -325 6 -7 28 -18 49 -23 21 -6 45
-17 54 -26 17 -17 17 -15 15 -221 -2 -208 1 -220 59 -246 25 -11 49 -25 54
-31 4 -6 7 -75 6 -153 0 -78 2 -147 6 -152 8 -14 175 -14 209 -1 l26 10 0 144
c0 159 -1 157 68 175 38 11 42 15 43 44 9 287 15 426 20 431 4 4 23 8 43 10
20 1 42 8 49 15 8 8 13 64 15 180 l4 168 -24 6 c-37 11 -196 8 -203 -3 -3 -5
-8 -168 -11 -362 -6 -478 -9 -497 -73 -483 -53 12 -55 20 -58 248 -2 136 -7
215 -14 224 -6 7 -24 13 -39 13 -50 0 -57 21 -64 195 -5 106 -11 162 -19 167
-21 13 -197 10 -202 -4z"/>
<path d="M12883 4491 c-45 -3 -84 -9 -88 -12 -10 -11 -6 -1161 5 -1174 15 -18
553 -20 568 -3 13 16 0 107 -17 118 -7 4 -76 5 -154 2 -124 -4 -144 -2 -156
12 -10 12 -15 69 -19 224 -6 257 -11 248 131 239 111 -6 127 0 127 51 0 61 -6
64 -124 67 -69 2 -113 8 -123 16 -13 11 -14 35 -10 162 4 99 10 153 18 164 11
13 37 15 161 12 98 -3 151 0 158 7 6 6 10 35 8 65 l-3 54 -200 1 c-110 0 -237
-2 -282 -5z"/>
<path d="M14105 4488 c-2 -7 -6 -164 -7 -349 -3 -360 -5 -369 -53 -369 -40 0
-65 44 -63 109 2 68 -10 94 -70 147 l-47 42 -3 82 c-3 65 -8 83 -21 87 -81 26
-95 49 -93 156 0 39 -4 77 -10 84 -14 18 -211 18 -226 1 -6 -8 -10 -225 -11
-589 -3 -648 -8 -606 73 -594 l46 7 0 333 c0 391 6 423 72 389 38 -20 50 -47
58 -131 7 -69 10 -76 54 -123 41 -44 46 -54 46 -96 0 -95 40 -164 95 -164 38
0 47 -22 40 -92 -4 -38 -2 -74 4 -91 l11 -28 102 3 103 3 7 110 c11 192 9
1057 -4 1072 -14 17 -97 17 -103 1z"/>
<path d="M15073 4494 c-10 -4 -13 -75 -14 -302 -1 -163 -4 -324 -8 -357 -6
-58 -7 -60 -37 -63 -46 -5 -74 38 -74 112 0 69 -14 101 -56 125 -46 28 -67 64
-69 124 -1 29 -3 60 -4 69 0 10 -19 29 -41 43 -53 33 -70 70 -70 149 0 100 5
96 -126 96 l-114 0 2 -592 3 -593 55 0 55 0 5 350 c3 193 9 356 13 363 12 18
51 15 69 -5 20 -24 38 -79 38 -119 0 -46 13 -74 53 -115 35 -36 41 -52 69
-174 12 -54 17 -62 53 -82 64 -35 65 -36 65 -129 0 -102 -2 -101 137 -94 l98
5 0 595 0 595 -45 2 c-25 1 -51 0 -57 -3z"/>
<path d="M15661 4491 c-8 -6 -17 -204 -13 -303 2 -47 3 -48 35 -48 73 0 80
-19 92 -232 5 -92 4 -98 -17 -112 -26 -18 -61 -20 -89 -6 -18 10 -19 23 -19
175 0 125 -3 165 -12 166 -33 3 -84 -4 -92 -11 -5 -5 -10 -75 -12 -156 -3
-157 -12 -184 -58 -184 -31 0 -71 -25 -68 -41 2 -8 3 -104 3 -215 -2 -229 -2
-227 75 -222 l48 3 0 170 1 170 175 0 175 0 6 -165 c3 -91 7 -168 8 -172 0 -5
53 -8 116 -8 l115 0 0 163 c0 89 3 192 6 229 8 75 12 70 -71 84 l-50 9 -5 169
-5 170 -48 12 c-27 7 -51 15 -55 18 -3 3 -6 79 -8 169 -1 89 -2 165 -3 168 -1
8 -217 7 -230 0z"/>
<path d="M12313 4474 c-5 -11 -8 -278 -8 -594 l0 -575 116 -3 116 -3 6 578 c4
429 2 581 -7 590 -6 6 -57 14 -113 18 -95 7 -103 6 -110 -11z"/>
<path d="M6575 7503 c-60 -2 -240 -4 -400 -5 l-290 -3 -3 -30 c-2 -16 -10 -56
-18 -87 -15 -60 -24 -109 -79 -433 -43 -254 -59 -342 -96 -540 -89 -471 -111
-617 -112 -755 -1 -324 79 -539 276 -732 223 -220 550 -318 1016 -305 165 4
200 8 309 36 498 126 793 396 946 866 25 76 72 301 116 555 12 69 30 170 40
225 34 180 109 608 125 710 15 94 36 211 70 400 8 44 15 83 15 88 0 4 -190 6
-422 5 l-422 -3 -9 -45 c-4 -25 -25 -148 -47 -275 -149 -872 -220 -1256 -256
-1375 -39 -132 -117 -250 -203 -307 -91 -61 -157 -77 -306 -77 -155 1 -195 14
-280 95 -80 75 -90 110 -89 294 0 131 6 179 42 375 60 333 91 507 118 675 22
141 35 212 69 395 39 213 42 263 13 258 -7 -1 -62 -4 -123 -5z"/>
<path d="M21430 7500 l-594 -5 -12 -75 c-11 -73 -18 -117 -89 -525 -19 -110
-44 -252 -54 -315 -35 -207 -101 -582 -126 -715 -40 -209 -101 -557 -130 -735
-15 -91 -35 -208 -45 -260 -10 -52 -21 -116 -25 -141 l-6 -47 238 -5 c423 -9
530 -8 540 5 6 7 18 51 28 98 9 47 25 126 35 175 27 131 103 562 149 845 38
232 47 295 87 585 18 133 39 224 54 239 15 15 30 -11 30 -51 0 -29 26 -173 49
-275 6 -24 38 -171 72 -328 63 -293 190 -842 234 -1010 13 -52 34 -133 45
-180 12 -47 25 -89 30 -94 14 -14 1106 -21 1114 -8 15 24 50 206 136 707 19
109 40 224 80 445 31 173 91 516 125 715 118 688 152 913 142 939 -5 13 -55
15 -389 13 l-383 -2 -11 -65 c-7 -36 -28 -157 -47 -270 -30 -174 -54 -309 -82
-455 -6 -34 -92 -551 -105 -635 -5 -30 -16 -113 -25 -185 -20 -160 -21 -163
-39 -144 -15 16 -67 271 -91 449 -16 117 -208 1089 -226 1146 -5 17 -14 57
-19 89 -11 70 -23 86 -64 83 -17 -2 -299 -5 -626 -8z"/>
<path d="M4826 7488 c-2 -7 -16 -85 -31 -173 -15 -88 -42 -243 -60 -345 -18
-102 -36 -203 -40 -225 -3 -22 -19 -110 -35 -195 -16 -85 -55 -297 -85 -470
-93 -522 -98 -542 -157 -606 -60 -65 -171 -92 -268 -64 -53 15 -67 6 -75 -48
-6 -41 -42 -200 -91 -397 -16 -68 -17 -70 -41 -182 -22 -104 -19 -108 103
-128 208 -34 389 -26 564 22 205 58 402 202 524 385 137 206 179 359 301 1073
13 77 31 181 40 230 8 50 29 169 46 265 51 302 109 631 129 745 11 61 20 113
20 118 0 4 -189 7 -420 7 -328 0 -421 -3 -424 -12z"/>
</g>
</svg>
