<?xml version="1.0" encoding="UTF-8" standalone="no"?>
<!-- Created with Inkscape (http://www.inkscape.org/) -->

<svg
   width="500mm"
   height="500mm"
   viewBox="0 0 499.99999 500.00001"
   version="1.1"
   id="svg1"
   inkscape:export-filename="chain.svg"
   inkscape:export-xdpi="61.927616"
   inkscape:export-ydpi="61.927616"
   inkscape:version="1.4.2 (ebf0e940, 2025-05-08)"
   sodipodi:docname="ch.svg"
   xmlns:inkscape="http://www.inkscape.org/namespaces/inkscape"
   xmlns:sodipodi="http://sodipodi.sourceforge.net/DTD/sodipodi-0.dtd"
   xmlns="http://www.w3.org/2000/svg"
   xmlns:svg="http://www.w3.org/2000/svg">
  <sodipodi:namedview
     id="namedview1"
     pagecolor="#ffffff"
     bordercolor="#000000"
     borderopacity="0.25"
     inkscape:showpageshadow="2"
     inkscape:pageopacity="0.0"
     inkscape:pagecheckerboard="0"
     inkscape:deskcolor="#d1d1d1"
     inkscape:document-units="mm"
     inkscape:zoom="0.21904881"
     inkscape:cx="618.5836"
     inkscape:cy="1084.2332"
     inkscape:window-width="1440"
     inkscape:window-height="872"
     inkscape:window-x="0"
     inkscape:window-y="28"
     inkscape:window-maximized="0"
     inkscape:current-layer="layer1" />
  <defs
     id="defs1" />
  <g
     inkscape:label="Layer 1"
     inkscape:groupmode="layer"
     id="layer1"
     transform="translate(-85.058259,36.047959)">
    <path
       style="fill:#000000"
       d="m 459.85936,312.96687 c -1.7613,-0.71072 -2.48804,-3.42826 -1.39134,-5.20275 1.40255,-2.26938 4.98498,-2.24201 6.48647,0.0496 0.97639,1.49016 0.31564,4.22457 -1.21168,5.01438 -0.83791,0.4333 -2.96522,0.50934 -3.88345,0.13882 z m -245.36273,-0.33118 -0.66146,-0.34779 -0.13229,-13.35373 -0.13229,-13.35372 -4.10104,-0.0703 c -3.47493,-0.0595 -4.15154,-0.13795 -4.43178,-0.51359 -0.45813,-0.6141 -0.44263,-4.42613 0.0199,-4.88735 0.27503,-0.27426 2.00027,-0.34685 8.00365,-0.33674 14.11525,0.0238 15.64007,0.0744 16.10081,0.53518 0.53062,0.53061 0.60044,4.46305 0.085,4.78968 -0.1819,0.11527 -2.01563,0.21705 -4.07496,0.22615 -2.66865,0.0118 -3.86368,0.1157 -4.16003,0.36164 -0.36586,0.30364 -0.4246,1.91333 -0.4891,13.40245 -0.0577,10.27729 -0.14647,13.13056 -0.41696,13.40114 -0.48891,0.4891 -4.74664,0.60064 -5.60947,0.14695 z m 20.96095,-0.0828 -0.58803,-0.41187 v -15.85064 c 0,-14.89649 0.0282,-15.86579 0.46856,-16.10146 0.79814,-0.42715 5.47929,-0.47598 5.97768,-0.0624 0.37711,0.31297 0.43292,1.11844 0.43292,6.24763 0,4.7333 0.0729,5.94882 0.37161,6.19673 0.56363,0.46777 12.18358,0.53587 12.64578,0.0741 0.2559,-0.25566 0.36718,-1.84901 0.43425,-6.21771 0.0749,-4.8783 0.16068,-5.95284 0.50612,-6.3393 0.36373,-0.40693 0.73431,-0.44439 2.95253,-0.29848 1.57041,0.1033 2.68276,0.30433 2.92034,0.5278 0.5584,0.52523 0.60353,31.53915 0.0469,32.20991 -0.2919,0.35174 -0.86417,0.43756 -2.91769,0.43756 -3.91312,0 -3.75511,0.24471 -3.73007,-5.77668 0.0113,-2.71642 0.0158,-5.80215 0.01,-6.85717 l -0.0106,-1.91823 h -6.33439 c -3.67092,0 -6.39906,0.10464 -6.48819,0.24887 -0.0846,0.13688 -0.21308,3.26227 -0.28553,6.94531 -0.11507,5.8508 -0.18754,6.73821 -0.57383,7.02717 -0.67299,0.50344 -5.09143,0.44202 -5.83836,-0.0812 z m 35.29274,-0.15513 c -0.38063,-0.54343 -0.42661,-2.27946 -0.42661,-16.11004 0,-12.97443 0.0612,-15.58469 0.37578,-16.01457 0.36056,-0.49279 0.72726,-0.51085 9.05398,-0.446 6.5353,0.0509 8.76022,0.14962 9.0104,0.3998 0.45342,0.45342 0.54667,4.33163 0.11456,4.76455 -0.22845,0.22887 -1.89667,0.34822 -5.6689,0.40555 -2.93985,0.0447 -5.44841,0.18363 -5.57457,0.30876 -0.33033,0.32764 -0.32774,6.56705 0.003,6.89765 0.15466,0.15466 2.26306,0.33028 4.87963,0.40645 2.53401,0.0738 4.87519,0.19074 5.20261,0.25994 0.56044,0.11846 0.59532,0.25675 0.59532,2.36044 0,2.83478 -0.0586,2.87452 -4.07517,2.7615 -3.83666,-0.10796 -6.02868,-0.0234 -6.45846,0.24916 -0.25813,0.16369 -0.35993,1.26197 -0.39688,4.28169 l -0.0497,4.06151 0.66146,0.18581 c 0.3638,0.1022 2.95636,0.19768 5.76124,0.21219 l 5.09977,0.0264 0.24894,0.65474 c 0.32243,0.84806 0.14164,4.07443 -0.2503,4.46672 -0.21078,0.21097 -2.93118,0.32888 -8.99079,0.38968 l -8.68856,0.0872 z m 47.17315,0.29909 c -0.66873,-0.11312 -1.44263,-0.32977 -1.71979,-0.48145 -0.27716,-0.15167 -1.07214,-0.5438 -1.76664,-0.8714 -1.56276,-0.73716 -4.12926,-3.36784 -5.04096,-5.16699 -1.33583,-2.63613 -1.76647,-5.0463 -1.76257,-9.86467 0.003,-3.82285 0.0799,-4.61825 0.60205,-6.23403 2.34807,-7.26608 7.97413,-11.1184 15.51516,-10.62365 3.65783,0.23998 8.16436,1.54273 8.25226,2.38557 0.10833,1.03867 -1.49057,4.58983 -2.16258,4.80312 -0.25918,0.0823 -1.20915,-0.15028 -2.11105,-0.51675 -3.26272,-1.32577 -6.82304,-1.49431 -8.59001,-0.40666 -1.93421,1.1906 -3.61432,3.61629 -4.39318,6.34275 -0.42918,1.50239 -0.44868,6.8327 -0.0317,8.65948 1.38751,6.07818 5.32551,8.0116 12.77894,6.274 3.76924,-0.87871 3.67444,-0.93087 3.6804,2.02499 0.005,2.40892 -0.14479,2.59425 -2.7358,3.38797 -1.50757,0.46183 -2.44566,0.55039 -5.55625,0.52452 -2.05834,-0.0171 -4.28958,-0.12367 -4.95831,-0.2368 z m 20.86119,-0.0178 c -0.43281,-0.2521 -0.46302,-1.30324 -0.46302,-16.11264 0,-14.04991 0.0471,-15.89001 0.41577,-16.25873 0.32464,-0.32464 1.01855,-0.41578 3.1657,-0.41578 2.44797,0 2.77999,0.0562 3.0238,0.51178 0.16429,0.30697 0.2739,2.77399 0.2739,6.16479 0,4.04401 0.0904,5.74339 0.3175,5.97052 0.36801,0.36801 12.52414,0.46589 12.74864,0.10264 0.073,-0.11817 0.19488,-2.87014 0.27078,-6.1155 0.12292,-5.25647 0.18956,-5.93978 0.61043,-6.25903 0.65282,-0.49519 5.44968,-0.51658 5.85674,-0.0261 0.20221,0.24366 0.29662,5.13577 0.31259,16.19787 0.0214,14.80453 -0.008,15.87108 -0.44018,16.18737 -0.29767,0.21766 -1.34276,0.33859 -2.92603,0.33859 -3.50684,0 -3.5786,-0.0892 -3.47107,-4.31539 0.0451,-1.77388 0.0523,-4.80281 0.0159,-6.73096 l -0.0661,-3.50573 -6.15156,0.004 c -3.40771,0.002 -6.32858,0.11581 -6.54844,0.2546 -0.33221,0.20973 -0.40953,1.3406 -0.47459,6.94126 -0.0679,5.84454 -0.13285,6.73254 -0.51359,7.02144 -0.53346,0.40478 -5.27788,0.44058 -5.95713,0.045 z m 31.47926,-0.0889 c -0.397,-0.39699 -0.35773,-0.62783 0.51103,-3.00423 0.51758,-1.41581 1.29348,-3.58623 1.72421,-4.82316 1.28166,-3.68052 4.99099,-14.08257 5.37792,-15.08125 0.19733,-0.50933 0.98344,-2.71198 1.74691,-4.89479 0.76347,-2.18282 1.62618,-4.23665 1.91713,-4.56407 0.49848,-0.56094 0.73194,-0.59531 4.04446,-0.59531 3.97713,0 4.21431,0.10633 4.9689,2.22756 0.5231,1.47048 2.46773,6.86243 3.06126,8.48807 0.54767,1.50003 1.6896,4.73448 4.76398,13.49375 1.17475,3.34698 2.33339,6.54214 2.57477,7.10035 0.72458,1.67569 0.40424,1.88227 -3.05509,1.97021 -3.88408,0.0987 -3.56037,0.42735 -5.46699,-5.54972 -0.40352,-1.26499 -0.90654,-2.36632 -1.11782,-2.44739 -0.21128,-0.0811 -2.79243,-0.14741 -5.73589,-0.14741 -3.87667,0 -5.46976,0.0912 -5.7799,0.33073 -0.23548,0.1819 -0.86483,1.73045 -1.39855,3.44122 -1.35132,4.33149 -1.27887,4.26549 -4.81491,4.38652 -2.40661,0.0824 -2.96348,0.0269 -3.32142,-0.33108 z m 19.45514,-13.5676 c 0.24764,-0.14134 0.11137,-0.9345 -0.4505,-2.62211 -0.23712,-0.71224 -1.18256,-3.61669 -2.10097,-6.45435 l -1.66982,-5.15937 -0.45047,1.5875 c -0.24776,0.87312 -1.10963,3.73062 -1.91526,6.35 -0.80564,2.61937 -1.52654,5.14556 -1.602,5.61375 l -0.13719,0.85126 3.13679,0.0829 c 3.00808,0.0794 4.76068,-0.005 5.18942,-0.24953 z m 16.77301,13.61733 c -0.46788,-0.35149 -0.48498,-1.05389 -0.39687,-16.30273 0.0798,-13.80885 0.14503,-15.9689 0.48894,-16.18627 0.65958,-0.4169 5.70218,-0.32386 6.06381,0.11188 0.22529,0.27146 0.27651,2.62903 0.19115,8.7974 -0.0641,4.6346 -0.14068,8.60515 -0.17008,8.82343 -0.0294,0.21828 0.0369,3.56324 0.14731,7.43324 0.16883,5.91738 0.14156,7.07344 -0.17145,7.26953 -0.67368,0.42204 -5.60515,0.46494 -6.15281,0.0535 z m 15.76864,0.0386 c -0.56906,-0.2158 -0.59629,-0.36325 -0.61733,-3.34313 -0.0914,-12.93988 0.0332,-29.03122 0.22619,-29.22427 0.1286,-0.1286 2.00466,-0.20076 4.16901,-0.16034 l 3.93519,0.0735 0.80675,1.10384 c 0.44371,0.60712 1.68511,2.63118 2.75866,4.49792 4.09219,7.11567 5.63524,9.75916 6.93431,11.8796 0.54127,0.8835 1.47483,2.55038 2.07458,3.70417 0.59975,1.15379 1.32307,2.39546 1.60738,2.75926 0.48336,0.6185 0.51731,0.62623 0.52281,0.11906 0.003,-0.29832 0.1309,-0.66741 0.28369,-0.8202 0.19402,-0.19403 0.19402,-0.94602 0,-2.49337 -0.15279,-1.21856 -0.27781,-6.15103 -0.27781,-10.96103 0,-10.5124 -0.17177,-9.92155 2.88442,-9.92155 3.35328,0 3.05348,-1.58101 3.15649,16.646 0.0818,14.47087 0.0565,15.55851 -0.37044,15.91355 -0.33417,0.27791 -1.39811,0.40423 -3.93007,0.4666 -3.19624,0.0787 -3.52781,0.0415 -4.17683,-0.46901 -0.5671,-0.44608 -5.76565,-8.69285 -5.76565,-9.1464 0,-0.0681 -1.11226,-1.9998 -2.47169,-4.29276 -1.35942,-2.29296 -3.25914,-5.53824 -4.22159,-7.21173 -0.96245,-1.67349 -1.90502,-3.25462 -2.09461,-3.51363 -0.28454,-0.38873 -0.32767,1.6447 -0.24712,11.65119 0.0804,9.99296 0.0343,12.17229 -0.26235,12.40785 -0.4714,0.37424 -4.1589,0.62504 -4.92399,0.3349 z M 296.07867,252.52914 c -3.13224,-0.59513 -6.68744,-1.8574 -10.14454,-3.6018 -6.36481,-3.21157 -12.44203,-9.627 -15.47426,-16.33542 -3.03935,-6.72418 -3.7177,-9.84647 -3.50366,-16.12645 0.15893,-4.66296 0.44707,-5.96701 2.45091,-11.0922 2.0754,-5.30824 3.67644,-7.82772 7.16869,-11.2811 1.14525,-1.1325 4.22728,-4.1686 6.84896,-6.74688 2.62167,-2.57827 6.01495,-6.05401 7.54062,-7.72385 3.60184,-3.9422 3.89529,-4.23997 4.17849,-4.23997 0.13087,0 0.30509,2.29196 0.38715,5.09323 0.15106,5.1571 0.3381,6.46915 1.67897,11.77757 0.4142,1.63982 0.617,2.99023 0.51193,3.40887 -0.10288,0.40992 -2.48365,3.04431 -5.82501,6.44555 -5.24675,5.34077 -5.72719,5.91081 -6.7158,7.96822 -1.5269,3.17762 -2.17573,6.96133 -1.69152,9.86423 0.69266,4.15267 1.956,6.89838 4.5731,9.93914 6.0468,7.02567 14.36674,8.96443 22.25188,5.18528 2.6365,-1.26361 6.33143,-4.7818 25.72291,-24.4925 l 11.58328,-11.77396 1.28908,-2.64583 c 1.5947,-3.27314 2.11179,-5.25867 2.11179,-8.10883 0,-2.31288 -0.48614,-4.47082 -1.60055,-7.10472 -1.38197,-3.26626 -5.68588,-7.92283 -8.6412,-9.34924 -2.23638,-1.07942 -2.26542,-1.09725 -2.56799,-1.57693 -0.23143,-0.36689 0.66388,-1.3835 5.402,-6.13388 4.20886,-4.21977 5.84193,-5.69411 6.30711,-5.69411 0.87665,0 4.39347,2.82767 7.61602,6.12361 5.16609,5.28373 8.14111,11.05508 9.37051,18.1782 1.61895,9.38018 -0.77908,19.07227 -6.58609,26.61892 -0.67204,0.87336 -9.08184,9.46003 -18.68845,19.08149 -19.31703,19.34689 -19.84529,19.80569 -25.43358,22.08945 -4.9632,2.02832 -6.95476,2.41649 -12.93508,2.52116 -3.7106,0.0649 -5.85756,-0.0149 -7.18567,-0.26725 z m 24.14311,-43.93111 c -4.55903,-3.42265 -8.9601,-8.35841 -11.24339,-12.60934 -1.95098,-3.63225 -3.26165,-8.04985 -3.8692,-13.04107 -0.37892,-3.11301 -0.37837,-3.68461 0.006,-6.48229 0.66841,-4.86167 1.80763,-8.76397 3.57228,-12.23658 2.05814,-4.05015 3.10267,-5.19499 21.68829,-23.77106 17.64144,-17.63235 19.0842,-19.01243 21.30707,-20.38132 2.80313,-1.72623 9.15445,-4.21102 12.43542,-4.86503 8.48878,-1.69211 18.71118,0.87991 26.75802,6.7325 1.92317,1.39875 7.50043,6.98792 8.03639,8.05356 0.21734,0.43214 0.57587,0.97003 0.79673,1.19531 1.26949,1.2949 4.30488,8.59961 5.27874,12.70335 0.73795,3.10963 0.74187,8.57084 0.009,12.16836 -1.1018,5.40659 -3.37324,10.66951 -6.29801,14.59243 -1.84721,2.47762 -2.67174,3.34144 -12.8058,13.41601 -5.48426,5.45205 -8.22505,8.00025 -8.53743,7.9375 -0.4151,-0.0834 -0.46719,-0.59675 -0.53291,-5.2518 -0.0622,-4.40766 -0.17402,-5.62198 -0.76724,-8.33438 -0.38192,-1.74625 -0.87957,-3.73288 -1.1059,-4.41473 -0.36997,-1.1146 -0.37064,-1.31878 -0.007,-2.02282 0.22273,-0.43069 2.70029,-3.0875 5.50571,-5.90401 5.20257,-5.22314 6.23505,-6.56178 7.52583,-9.75744 1.65429,-4.09561 1.48905,-9.31441 -0.42439,-13.40333 -2.21642,-4.7364 -7.98892,-9.81061 -12.57197,-11.05118 -0.95251,-0.25784 -1.73183,-0.57463 -1.73183,-0.70399 0,-0.3101 -5.43026,-0.30501 -6.02286,0.006 -0.25269,0.13247 -1.48711,0.55866 -2.74317,0.94709 -4.01657,1.2421 -3.39659,0.68762 -25.03254,22.3883 -7.31136,7.33323 -13.78394,13.98798 -14.38353,14.78835 -2.81469,3.75723 -4.00114,8.01956 -3.49831,12.56771 0.47618,4.30707 2.16011,7.48594 6.03978,11.40168 2.18884,2.20918 3.00001,2.83817 4.69636,3.64159 1.12778,0.53414 2.04913,1.11838 2.04743,1.29832 -0.003,0.35744 -5.052,5.61292 -8.90486,9.26972 -1.63285,1.54976 -2.62733,2.30132 -3.04271,2.29945 -0.33938,-0.002 -1.32058,-0.53095 -2.18045,-1.1765 z"
       id="path1" />
  </g>
</svg>
