<?xml version="1.0" encoding="UTF-8"?>
<svg id="Réteg_1" data-name="Réteg 1" xmlns="http://www.w3.org/2000/svg" viewBox="0 0 170.08 75.28">
  <defs>
    <style>
      .cls-1 {
        fill: #026bb2;
      }

      .cls-2 {
        fill: #f5f5f5;
        font-family: MyriadPro-Regular, 'Myriad Pro';
        font-size: 14.85px;
      }

      .cls-3 {
        letter-spacing: .16em;
      }

      .cls-4 {
        letter-spacing: .17em;
      }

      .cls-5 {
        letter-spacing: .17em;
      }

      .cls-6 {
        fill: none;
        stroke: #f5f5f5;
        stroke-linecap: round;
        stroke-linejoin: round;
        stroke-width: 3px;
      }
    </style>
  </defs>
  <rect class="cls-1" x="0" y="0" width="170.08" height="75.28" rx="9.44" ry="9.44"/>
  <path class="cls-6" d="m110.83,53.06c-4.1-5.17-7.2-9.02-9.56-11.99-2.52-3.11-4.18-5.22-5.25-6.58-1.07-1.39-1.58-2.06-1.9-2.44q-.21-.37-.16-.37c1.45,0,2.81-.32,4.04-.86,1.28-.51,2.41-1.28,3.32-2.28.99-.96,1.77-2.11,2.28-3.4.54-1.28.86-2.65.86-4.18,0-1.45-.32-2.89-.91-4.18-.54-1.37-1.31-2.52-2.28-3.48-.99-.99-2.22-1.82-3.51-2.36-1.28-.54-2.73-.91-4.26-.91l.08,43.02"/>
  <polyline class="cls-6" points="123.81 53.06 123.73 10.95 141.18 27.57 156.95 11.03 157.03 53.06"/>
  <line class="cls-6" x1="15.69" y1="11.24" x2="15.75" y2="53.06"/>
  <path class="cls-6" d="m43.36,52.89l18.05-21.69,9.63,12.2,6.95-7.26,7.08,7.26c.61-2.01.97-4.04,1.05-6.12s-.08-4.28-.45-6.28c-.45-2.09-1.13-4.12-2.03-6.07-.97-1.93-2.16-3.8-3.66-5.52-2.32-2.56-5-4.57-7.89-5.99-2.92-1.35-6.05-2.16-9.18-2.4-3.21-.21-6.42.24-9.47,1.19-3.05,1.06-5.97,2.69-8.5,4.94-2.6,2.32-4.63,5.02-6.05,7.95-1.39,2.9-2.24,6.07-2.45,9.21-.24,3.19.21,6.42,1.18,9.5,1.05,3.06,3.42,6.54,5.73,9.1"/>
  <line class="cls-6" x1="61.65" y1="15.99" x2="61.65" y2="17.36"/>
  <line class="cls-6" x1="42.04" y1="35.84" x2="43.49" y2="35.84"/>
  <line class="cls-6" x1="117.28" y1="11.24" x2="117.36" y2="53.06"/>
  <polyline class="cls-6" points="32.99 53.06 16.07 31.67 31.83 11.08"/>
  <text class="cls-2" transform="translate(12.08 68.93)"><tspan class="cls-4" x="0" y="0">endu</tspan><tspan class="cls-5" x="42.34" y="0">r</tspan><tspan class="cls-4" x="49.65" y="0">an</tspan><tspan class="cls-3" x="70.1" y="0">c</tspan><tspan class="cls-4" x="79.19" y="0">e timing</tspan></text>
</svg>